PathFileType	4	(X/Y/Z)	C:\Users\xlb\Desktop\20210112\20210112\bx_n_10_901.trc
DataRate	CameraRate	NumFrames	NumMarkers	Units	OrigDataRate	OrigDataStartFrame	OrigNumFrames
50.00	50.00	       4	43	mm	50.00	260	       518
Frame#	Time	Top.Head			R.Acromium			L.Acromium			Sternum			R.ASIS			L.ASIS			V.Sacral			R.Thigh.Upper			R.Thigh.Front			R.Thigh.Rear			R.Knee.Lat			R.Knee.Med			R.Shank.Upper			R.Shank.Front			R.Shank.Rear			R.Ankle.Lat			R.Midfoot.Lat			R.Toe.Lat			R.Toe.Tip			R.Toe.Med			R.Ankle.Med			R.Midfoot.Sup			R.Heel			L.Thigh.Upper			L.Thigh.Front			L.Thigh.Rear			L.Knee.Lat			L.Knee.Med			L.Shank.Upper			L.Shank.Front			L.Shank.Rear			L.Ankle.Lat			L.Midfoot.Lat			L.Toe.Lat			L.Toe.Tip			L.Toe.Med			L.Ankle.Med			L.Midfoot.Sup			L.Heel			origin1 front left			origin2 front right			origin 3 back right			origin 4 back leftt			
		X1	Y1	Z1	X2	Y2	Z2	X3	Y3	Z3	X4	Y4	Z4	X5	Y5	Z5	X6	Y6	Z6	X7	Y7	Z7	X8	Y8	Z8	X9	Y9	Z9	X10	Y10	Z10	X11	Y11	Z11	X12	Y12	Z12	X13	Y13	Z13	X14	Y14	Z14	X15	Y15	Z15	X16	Y16	Z16	X17	Y17	Z17	X18	Y18	Z18	X19	Y19	Z19	X20	Y20	Z20	X21	Y21	Z21	X22	Y22	Z22	X23	Y23	Z23	X24	Y24	Z24	X25	Y25	Z25	X26	Y26	Z26	X27	Y27	Z27	X28	Y28	Z28	X29	Y29	Z29	X30	Y30	Z30	X31	Y31	Z31	X32	Y32	Z32	X33	Y33	Z33	X34	Y34	Z34	X35	Y35	Z35	X36	Y36	Z36	X37	Y37	Z37	X38	Y38	Z38	X39	Y39	Z39	X40	Y40	Z40	X41	Y41	Z41	X42	Y42	Z42	X43	Y43	Z43	

260	5.180	-266.26022	93.23556	1545.21301	-474.78668	-81.23623	1335.98950	-482.85919	251.57014	1349.37207	-567.57324	82.06242	1146.06189	-760.61975	-25.24824	1018.54919	-778.03735	221.84555	1037.31921	-968.99182	73.09206	1078.16040	-832.35950	-91.56473	862.02081	-744.24384	-26.02017	804.88611	-830.96069	-79.57573	745.55194	-820.76105	-50.74634	606.13763	-796.51593	59.98617	568.91528	-817.74426	-46.95372	557.03522	-754.06885	3.12323	524.16711	-839.46759	-57.04308	469.09204	-763.69769	-21.94111	199.90370	-650.21259	-70.56519	159.25780	-607.39099	-77.94909	155.85059	-548.92511	-28.19062	162.95430	-597.52686	23.39882	169.41475	-724.25745	64.01707	221.31963	-671.15021	51.44515	164.53592	-792.06934	39.40550	171.20537	-865.13464	268.34201	864.94763	-751.95276	200.70454	818.08972	-842.46796	263.63708	732.48859	-845.74841	242.41911	628.26477	-791.20349	137.17566	568.24670	-831.09558	240.10297	564.61133	-767.12805	200.34094	535.82263	-851.83899	253.20525	485.03622	-772.59290	230.56664	201.28615	-659.17035	299.94025	156.79437	-622.65045	307.76337	157.78465	-556.43579	254.82744	164.80194	-594.10864	222.22076	174.26334	-719.02264	158.30325	221.53809	-675.20709	176.72211	163.56964	-797.80109	181.25665	180.67299	-528.08313	303.93918	146.49008	-517.98535	-72.93007	143.04951	-875.89771	-78.70304	141.18430	-882.69263	295.97925	144.60796	
261	5.200	-256.59781	93.16746	1525.91455	-469.06451	-80.76421	1321.50098	-477.09512	251.29433	1335.73145	-567.42169	82.47102	1135.09534	-764.68402	-25.77542	1016.07526	-782.23572	221.69710	1034.82678	-979.31665	76.08012	1079.55444	-836.84625	-91.96861	861.08099	-748.58746	-26.31857	804.47968	-834.74377	-80.12746	744.63702	-823.74603	-51.08017	605.47052	-799.40717	59.69187	568.53278	-820.43884	-47.30173	556.35083	-756.58813	2.79676	523.85150	-841.54779	-57.32816	468.31900	-763.79303	-22.08163	199.68536	-650.21399	-70.57009	159.19916	-607.42999	-77.94829	155.79745	-548.96265	-28.09680	163.00191	-597.59631	23.36884	169.39236	-724.60919	63.81772	221.39339	-671.25311	51.33622	164.72583	-792.17749	39.29321	171.09122	-870.02563	268.36310	864.01050	-756.78381	200.46074	817.35480	-846.50171	263.88596	731.45099	-848.96924	242.31143	627.34357	-793.96387	137.02786	567.69202	-833.90918	239.84325	563.87988	-769.75403	200.03101	535.36084	-854.03015	253.06740	484.18237	-772.69489	230.56871	201.16801	-659.18298	299.94757	156.79390	-622.68280	307.70981	157.81540	-556.49908	254.80383	164.73781	-594.18335	222.25395	174.27141	-719.28589	158.43883	221.58064	-675.24304	176.77409	163.61327	-797.84100	181.16885	180.64966	-528.07611	303.94501	146.48347	-517.97699	-72.91134	143.03526	-875.89801	-78.71302	141.18584	-882.73285	295.91406	144.57602	
262	5.220	-247.58405	93.20906	1506.55750	-463.67401	-80.19681	1306.95776	-471.57172	251.04700	1321.75732	-567.27313	82.97755	1124.27502	-768.71185	-26.33000	1013.69672	-786.14380	221.57924	1032.31995	-981.70715	75.44655	1079.82385	-841.24231	-92.31756	860.16614	-752.80750	-26.51897	804.06836	-838.43652	-80.59972	743.72711	-826.62689	-51.32236	604.81488	-802.10919	59.43232	568.04718	-823.03601	-47.56555	555.68982	-759.00830	2.57309	523.53741	-843.54730	-57.52135	467.58267	-763.87354	-22.18811	199.46573	-650.21222	-70.56223	159.13792	-607.48358	-77.93269	155.74156	-549.01483	-28.02304	163.05266	-597.67181	23.33694	169.37108	-724.94666	63.67836	221.47066	-671.34424	51.22964	164.90558	-792.29425	39.20664	170.99547	-874.55896	268.43658	863.09308	-761.28418	200.22487	816.61670	-850.23865	264.17081	730.45111	-851.97589	242.27509	626.44025	-796.64417	136.91914	567.13678	-836.54010	239.66901	563.16553	-772.23090	199.78067	534.92548	-856.07483	253.03438	483.35046	-772.78003	230.60158	201.05679	-659.19934	299.95401	156.78912	-622.71588	307.65381	157.83611	-556.55945	254.76509	164.65276	-594.20886	222.25529	174.28252	-719.52094	158.58965	221.60559	-675.27612	176.80487	163.64116	-797.85236	181.13193	180.59598	-528.07214	303.94318	146.47072	-517.97089	-72.89185	143.01604	-875.89581	-78.72002	141.18515	-882.77594	295.85065	144.54660	
263	5.240	-239.21164	93.36784	1487.23206	-458.60791	-79.54252	1292.44922	-466.32767	250.82462	1307.51758	-567.09515	83.54884	1113.63281	-772.69623	-26.81564	1011.39191	-789.75635	221.48796	1029.80835	-979.91431	73.03078	1079.52661	-845.52032	-92.59824	859.27850	-756.88031	-26.61119	803.65039	-842.02698	-80.98148	742.83508	-829.38165	-51.48308	604.17914	-804.60944	59.21051	567.45966	-825.52112	-47.74218	555.05682	-761.32312	2.45631	523.23743	-845.45392	-57.63445	466.88211	-763.95099	-22.27574	199.25002	-650.20795	-70.54601	159.08051	-607.54865	-77.90410	155.69028	-549.08636	-27.95953	163.10551	-597.75806	23.30891	169.35042	-725.26788	63.60862	221.55879	-671.42236	51.12955	165.06622	-792.41595	39.14015	170.91597	-878.73218	268.54861	862.20746	-765.44385	199.97902	815.88409	-853.67529	264.47833	729.49847	-854.77563	242.30699	625.55731	-799.22888	136.84053	566.59393	-838.98853	239.58899	562.46814	-774.54767	199.61641	534.54327	-857.98047	253.09607	482.54797	-772.85455	230.66130	200.95085	-659.21973	299.96393	156.78134	-622.74451	307.60196	157.84506	-556.61053	254.71368	164.55652	-594.19977	222.22725	174.28682	-719.72247	158.74741	221.61864	-675.30872	176.81859	163.65471	-797.83685	181.15619	180.50238	-528.07330	303.93222	146.45155	-517.96704	-72.86887	142.99420	-875.89282	-78.72285	141.18410	-882.81488	295.79764	144.52310	
